<svg width="38" height="38" viewBox="0 0 38 38" fill="none" xmlns="http://www.w3.org/2000/svg">
<g clip-path="url(#clip0)">
<path d="M32.4327 5.56246C25.0116 -1.85638 12.9814 -1.85459 5.56258 5.56654C-1.85625 12.9877 -1.85447 25.0178 5.56666 32.4366C12.9878 39.8555 25.0179 39.8537 32.4367 32.4326C35.9997 28.8685 38.0008 24.035 37.9997 18.9955C37.9986 13.9568 35.9961 9.12482 32.4327 5.56246ZM28.7745 26.4663C28.7737 26.4672 28.7729 26.468 28.772 26.4689V26.4625L27.8093 27.4189C26.5643 28.6796 24.751 29.1983 23.0276 28.7869C21.2912 28.3221 19.6406 27.5823 18.1383 26.5956C16.7425 25.7035 15.449 24.6607 14.2813 23.4859C13.2068 22.4193 12.2415 21.2481 11.3996 19.9899C10.4787 18.636 9.74978 17.1611 9.23359 15.6072C8.64184 13.7817 9.13221 11.7786 10.5003 10.4328L11.6276 9.30554C11.941 8.9907 12.4503 8.98959 12.7651 9.30301C12.7659 9.30383 12.7668 9.30465 12.7676 9.30554L16.3269 12.8649C16.6417 13.1783 16.6428 13.6876 16.3294 14.0023C16.3286 14.0031 16.3278 14.004 16.3269 14.0049L14.2369 16.0949C13.6372 16.688 13.5618 17.6306 14.0596 18.3115C14.8155 19.349 15.652 20.3252 16.5613 21.2312C17.575 22.2494 18.6771 23.1755 19.8546 23.9989C20.535 24.4735 21.4573 24.3935 22.0459 23.8089L24.0662 21.7569C24.3796 21.4421 24.8889 21.441 25.2037 21.7544C25.2045 21.7552 25.2053 21.756 25.2062 21.7569L28.7719 25.3289C29.0868 25.6423 29.0879 26.1515 28.7745 26.4663Z" fill="#3EC76D"/>
</g>
<defs>
<clipPath id="clip0">
<rect width="38" height="38" fill="white"/>
</clipPath>
</defs>
</svg>
